<?xml version="1.0" encoding="UTF-8" standalone="no"?>
<!DOCTYPE svg PUBLIC "-//W3C//DTD SVG 1.1//EN"
 "http://www.w3.org/Graphics/SVG/1.1/DTD/svg11.dtd">
<!-- Generated by graphviz version 2.40.1 (20161225.0304)
 -->
<!-- Title: dependencies Pages: 1 -->
<svg width="676pt" height="284pt"
 viewBox="0.00 0.00 676.00 284.00" xmlns="http://www.w3.org/2000/svg" xmlns:xlink="http://www.w3.org/1999/xlink">
<g id="graph0" class="graph" transform="scale(1 1) rotate(0) translate(4 280)">
<title>dependencies</title>
<polygon fill="#ffffff" stroke="transparent" points="-4,4 -4,-280 672,-280 672,4 -4,4"/>
<text text-anchor="start" x="313.0091" y="-42.4" font-family="sans-serif" font-weight="bold" font-size="14.00" fill="#000000">Legend</text>
<polygon fill="#ffffb3" stroke="transparent" points="100,-10 100,-30 120,-30 120,-10 100,-10"/>
<text text-anchor="start" x="123.629" y="-15.4" font-family="sans-serif" font-size="14.00" fill="#000000"> &#160;Declarations</text>
<polygon fill="#8dd3c7" stroke="transparent" points="213,-10 213,-30 233,-30 233,-10 213,-10"/>
<text text-anchor="start" x="236.7251" y="-15.4" font-family="sans-serif" font-size="14.00" fill="#000000"> &#160;Module</text>
<polygon fill="#80b1d3" stroke="transparent" points="299,-10 299,-30 319,-30 319,-10 299,-10"/>
<text text-anchor="start" x="322.7812" y="-15.4" font-family="sans-serif" font-size="14.00" fill="#000000"> &#160;Bootstrap</text>
<polygon fill="#fdb462" stroke="transparent" points="396,-10 396,-30 416,-30 416,-10 396,-10"/>
<text text-anchor="start" x="419.6732" y="-15.4" font-family="sans-serif" font-size="14.00" fill="#000000"> &#160;Providers</text>
<polygon fill="#fb8072" stroke="transparent" points="492,-10 492,-30 512,-30 512,-10 492,-10"/>
<text text-anchor="start" x="515.7258" y="-15.4" font-family="sans-serif" font-size="14.00" fill="#000000"> &#160;Exports</text>
<g id="clust1" class="cluster">
<title>cluster_CoreModule</title>
<polygon fill="none" stroke="#000000" stroke-dasharray="1,5" points="8,-70 8,-268 660,-268 660,-70 8,-70"/>
</g>
<g id="clust3" class="cluster">
<title>cluster_CoreModule_imports</title>
<polygon fill="none" stroke="#000000" points="538,-78 538,-130 652,-130 652,-78 538,-78"/>
</g>
<g id="clust4" class="cluster">
<title>cluster_CoreModule_exports</title>
<polygon fill="none" stroke="#000000" points="290,-208 290,-260 408,-260 408,-208 290,-208"/>
</g>
<g id="clust6" class="cluster">
<title>cluster_CoreModule_providers</title>
<polygon fill="none" stroke="#000000" points="16,-78 16,-130 530,-130 530,-78 16,-78"/>
</g>
<!-- SharedModule -->
<g id="node1" class="node">
<title>SharedModule</title>
<polygon fill="#8dd3c7" stroke="#000000" points="644.4231,-122 641.4231,-126 620.4231,-126 617.4231,-122 545.5769,-122 545.5769,-86 644.4231,-86 644.4231,-122"/>
<text text-anchor="middle" x="595" y="-99.8" font-family="Times,serif" font-size="14.00" fill="#000000">SharedModule</text>
</g>
<!-- CoreModule -->
<g id="node2" class="node">
<title>CoreModule</title>
<polygon fill="#8dd3c7" stroke="#000000" points="392.2619,-187 389.2619,-191 368.2619,-191 365.2619,-187 305.7381,-187 305.7381,-151 392.2619,-151 392.2619,-187"/>
<text text-anchor="middle" x="349" y="-164.8" font-family="Times,serif" font-size="14.00" fill="#000000">CoreModule</text>
</g>
<!-- SharedModule&#45;&gt;CoreModule -->
<g id="edge1" class="edge">
<title>SharedModule&#45;&gt;CoreModule</title>
<path fill="none" stroke="#000000" d="M595,-122.1061C595,-141.3391 595,-169 595,-169 595,-169 402.4136,-169 402.4136,-169"/>
<polygon fill="#000000" stroke="#000000" points="402.4136,-165.5001 392.4136,-169 402.4136,-172.5001 402.4136,-165.5001"/>
</g>
<!-- SharedModule  -->
<g id="node3" class="node">
<title>SharedModule </title>
<polygon fill="#fb8072" stroke="#000000" points="399.9222,-252 298.0778,-252 298.0778,-216 399.9222,-216 399.9222,-252"/>
<text text-anchor="middle" x="349" y="-229.8" font-family="Times,serif" font-size="14.00" fill="#000000">SharedModule </text>
</g>
<!-- CoreModule&#45;&gt;SharedModule  -->
<g id="edge2" class="edge">
<title>CoreModule&#45;&gt;SharedModule </title>
<path fill="none" stroke="#000000" stroke-dasharray="5,2" d="M349,-187.1061C349,-187.1061 349,-205.991 349,-205.991"/>
<polygon fill="#000000" stroke="#000000" points="345.5001,-205.9909 349,-215.991 352.5001,-205.991 345.5001,-205.9909"/>
</g>
<!-- ChampionService -->
<g id="node4" class="node">
<title>ChampionService</title>
<ellipse fill="#fdb462" stroke="#000000" cx="442" cy="-104" rx="80.4577" ry="18"/>
<text text-anchor="middle" x="442" y="-99.8" font-family="Times,serif" font-size="14.00" fill="#000000">ChampionService</text>
</g>
<!-- ChampionService&#45;&gt;CoreModule -->
<g id="edge3" class="edge">
<title>ChampionService&#45;&gt;CoreModule</title>
<path fill="none" stroke="#000000" d="M377.0761,-114.7334C377.0761,-114.7334 377.0761,-140.8723 377.0761,-140.8723"/>
<polygon fill="#000000" stroke="#000000" points="373.5762,-140.8722 377.0761,-150.8723 380.5762,-140.8723 373.5762,-140.8722"/>
</g>
<!-- CurrentUserService -->
<g id="node5" class="node">
<title>CurrentUserService</title>
<ellipse fill="#fdb462" stroke="#000000" cx="256" cy="-104" rx="87.9355" ry="18"/>
<text text-anchor="middle" x="256" y="-99.8" font-family="Times,serif" font-size="14.00" fill="#000000">CurrentUserService</text>
</g>
<!-- CurrentUserService&#45;&gt;CoreModule -->
<g id="edge4" class="edge">
<title>CurrentUserService&#45;&gt;CoreModule</title>
<path fill="none" stroke="#000000" d="M324.6683,-115.3221C324.6683,-115.3221 324.6683,-140.9424 324.6683,-140.9424"/>
<polygon fill="#000000" stroke="#000000" points="321.1684,-140.9424 324.6683,-150.9424 328.1684,-140.9425 321.1684,-140.9424"/>
</g>
<!-- LoginService -->
<g id="node6" class="node">
<title>LoginService</title>
<ellipse fill="#fdb462" stroke="#000000" cx="87" cy="-104" rx="63.1209" ry="18"/>
<text text-anchor="middle" x="87" y="-99.8" font-family="Times,serif" font-size="14.00" fill="#000000">LoginService</text>
</g>
<!-- LoginService&#45;&gt;CoreModule -->
<g id="edge5" class="edge">
<title>LoginService&#45;&gt;CoreModule</title>
<path fill="none" stroke="#000000" d="M87,-122.1061C87,-141.3391 87,-169 87,-169 87,-169 295.736,-169 295.736,-169"/>
<polygon fill="#000000" stroke="#000000" points="295.7361,-172.5001 305.736,-169 295.736,-165.5001 295.7361,-172.5001"/>
</g>
</g>
</svg>
