<?xml version="1.0" encoding="UTF-8" standalone="no"?>
<!DOCTYPE svg PUBLIC "-//W3C//DTD SVG 1.1//EN"
 "http://www.w3.org/Graphics/SVG/1.1/DTD/svg11.dtd">
<!-- Generated by graphviz version 2.40.1 (20161225.0304)
 -->
<!-- Title: dependencies Pages: 1 -->
<svg width="504pt" height="284pt"
 viewBox="0.00 0.00 504.00 284.00" xmlns="http://www.w3.org/2000/svg" xmlns:xlink="http://www.w3.org/1999/xlink">
<g id="graph0" class="graph" transform="scale(1 1) rotate(0) translate(4 280)">
<title>dependencies</title>
<polygon fill="#ffffff" stroke="transparent" points="-4,4 -4,-280 500,-280 500,4 -4,4"/>
<text text-anchor="start" x="227.0091" y="-42.4" font-family="sans-serif" font-weight="bold" font-size="14.00" fill="#000000">Legend</text>
<polygon fill="#ffffb3" stroke="transparent" points="14,-10 14,-30 34,-30 34,-10 14,-10"/>
<text text-anchor="start" x="37.629" y="-15.4" font-family="sans-serif" font-size="14.00" fill="#000000"> &#160;Declarations</text>
<polygon fill="#8dd3c7" stroke="transparent" points="127,-10 127,-30 147,-30 147,-10 127,-10"/>
<text text-anchor="start" x="150.7251" y="-15.4" font-family="sans-serif" font-size="14.00" fill="#000000"> &#160;Module</text>
<polygon fill="#80b1d3" stroke="transparent" points="213,-10 213,-30 233,-30 233,-10 213,-10"/>
<text text-anchor="start" x="236.7812" y="-15.4" font-family="sans-serif" font-size="14.00" fill="#000000"> &#160;Bootstrap</text>
<polygon fill="#fdb462" stroke="transparent" points="310,-10 310,-30 330,-30 330,-10 310,-10"/>
<text text-anchor="start" x="333.6732" y="-15.4" font-family="sans-serif" font-size="14.00" fill="#000000"> &#160;Providers</text>
<polygon fill="#fb8072" stroke="transparent" points="406,-10 406,-30 426,-30 426,-10 406,-10"/>
<text text-anchor="start" x="429.7258" y="-15.4" font-family="sans-serif" font-size="14.00" fill="#000000"> &#160;Exports</text>
<g id="clust1" class="cluster">
<title>cluster_ChampionsModule</title>
<polygon fill="none" stroke="#000000" stroke-dasharray="1,5" points="60,-70 60,-268 436,-268 436,-70 60,-70"/>
</g>
<g id="clust2" class="cluster">
<title>cluster_ChampionsModule_declarations</title>
<polygon fill="none" stroke="#000000" points="72,-78 72,-130 425,-130 425,-78 72,-78"/>
</g>
<g id="clust6" class="cluster">
<title>cluster_ChampionsModule_exports</title>
<polygon fill="none" stroke="#000000" points="68,-208 68,-260 428,-260 428,-208 68,-208"/>
</g>
<!-- ChampionDetailComponent -->
<g id="node1" class="node">
<title>ChampionDetailComponent</title>
<polygon fill="#ffffb3" stroke="#000000" points="416.8724,-122 243.1276,-122 243.1276,-86 416.8724,-86 416.8724,-122"/>
<text text-anchor="middle" x="330" y="-99.8" font-family="Times,serif" font-size="14.00" fill="#000000">ChampionDetailComponent</text>
</g>
<!-- ChampionsModule -->
<g id="node3" class="node">
<title>ChampionsModule</title>
<polygon fill="#8dd3c7" stroke="#000000" points="214.8272,-187 211.8272,-191 190.8272,-191 187.8272,-187 91.1728,-187 91.1728,-151 214.8272,-151 214.8272,-187"/>
<text text-anchor="middle" x="153" y="-164.8" font-family="Times,serif" font-size="14.00" fill="#000000">ChampionsModule</text>
</g>
<!-- ChampionDetailComponent&#45;&gt;ChampionsModule -->
<g id="edge1" class="edge">
<title>ChampionDetailComponent&#45;&gt;ChampionsModule</title>
<path fill="none" stroke="#000000" d="M358.9787,-122.0225C358.9787,-139.3734 358.9787,-163 358.9787,-163 358.9787,-163 224.8004,-163 224.8004,-163"/>
<polygon fill="#000000" stroke="#000000" points="224.8004,-159.5001 214.8004,-163 224.8004,-166.5001 224.8004,-159.5001"/>
</g>
<!-- ChampionsComponent -->
<g id="node2" class="node">
<title>ChampionsComponent</title>
<polygon fill="#ffffb3" stroke="#000000" points="225.6094,-122 80.3906,-122 80.3906,-86 225.6094,-86 225.6094,-122"/>
<text text-anchor="middle" x="153" y="-99.8" font-family="Times,serif" font-size="14.00" fill="#000000">ChampionsComponent</text>
</g>
<!-- ChampionsComponent&#45;&gt;ChampionsModule -->
<g id="edge2" class="edge">
<title>ChampionsComponent&#45;&gt;ChampionsModule</title>
<path fill="none" stroke="#000000" d="M153,-122.1061C153,-122.1061 153,-140.991 153,-140.991"/>
<polygon fill="#000000" stroke="#000000" points="149.5001,-140.9909 153,-150.991 156.5001,-140.991 149.5001,-140.9909"/>
</g>
<!-- ChampionDetailComponent  -->
<g id="node4" class="node">
<title>ChampionDetailComponent </title>
<polygon fill="#fb8072" stroke="#000000" points="419.8728,-252 242.1272,-252 242.1272,-216 419.8728,-216 419.8728,-252"/>
<text text-anchor="middle" x="331" y="-229.8" font-family="Times,serif" font-size="14.00" fill="#000000">ChampionDetailComponent </text>
</g>
<!-- ChampionsModule&#45;&gt;ChampionDetailComponent  -->
<g id="edge3" class="edge">
<title>ChampionsModule&#45;&gt;ChampionDetailComponent </title>
<path fill="none" stroke="#000000" stroke-dasharray="5,2" d="M214.9167,-175C255.4783,-175 301.0213,-175 301.0213,-175 301.0213,-175 301.0213,-205.9775 301.0213,-205.9775"/>
<polygon fill="#000000" stroke="#000000" points="297.5214,-205.9774 301.0213,-215.9775 304.5214,-205.9775 297.5214,-205.9774"/>
</g>
<!-- ChampionsComponent  -->
<g id="node5" class="node">
<title>ChampionsComponent </title>
<polygon fill="#fb8072" stroke="#000000" points="224.1099,-252 75.8901,-252 75.8901,-216 224.1099,-216 224.1099,-252"/>
<text text-anchor="middle" x="150" y="-229.8" font-family="Times,serif" font-size="14.00" fill="#000000">ChampionsComponent </text>
</g>
<!-- ChampionsModule&#45;&gt;ChampionsComponent  -->
<g id="edge4" class="edge">
<title>ChampionsModule&#45;&gt;ChampionsComponent </title>
<path fill="none" stroke="#000000" stroke-dasharray="5,2" d="M153,-187.1061C153,-187.1061 153,-205.991 153,-205.991"/>
<polygon fill="#000000" stroke="#000000" points="149.5001,-205.9909 153,-215.991 156.5001,-205.991 149.5001,-205.9909"/>
</g>
</g>
</svg>
